<svg id="图层_1" data-name="图层 1" xmlns="http://www.w3.org/2000/svg" xmlns:xlink="http://www.w3.org/1999/xlink" viewBox="0 0 591.12 220.11"><defs><style>.cls-1,.cls-3,.cls-4{fill:none;}.cls-2{clip-path:url(#clip-path);}.cls-3{stroke:#fff;}.cls-3,.cls-4{stroke-linecap:round;stroke-miterlimit:10;stroke-width:9px;opacity:0.4;}.cls-4{stroke:#ff1744;}</style><clipPath id="clip-path"><rect class="cls-1" width="591.12" height="220.11"/></clipPath></defs><title>top</title><g class="cls-2"><line class="cls-3" x1="104.43" y1="39.65" x2="161.77" y2="39.65"/><line class="cls-3" x1="269.72" y1="39.65" x2="300.06" y2="39.65"/><line class="cls-3" x1="75.69" y1="39.65" x2="82.87" y2="39.65"/><line class="cls-3" x1="-24.12" y1="39.65" x2="51.73" y2="39.65"/><line class="cls-4" x1="178.88" y1="124.13" x2="219.32" y2="124.13"/><line class="cls-3" x1="-21.18" y1="67.81" x2="134.77" y2="67.81"/><line class="cls-4" x1="-78.41" y1="95.97" x2="134.77" y2="95.97"/><line class="cls-4" x1="218.32" y1="208.61" x2="153.92" y2="208.61"/><line class="cls-4" x1="79.44" y1="208.61" x2="1.2" y2="208.61"/><line class="cls-3" x1="134.77" y1="208.61" x2="106.46" y2="208.61"/><line class="cls-3" x1="26.35" y1="180.45" x2="-23.95" y2="180.45"/><line class="cls-4" x1="134.77" y1="180.45" x2="53.5" y2="180.45"/><line class="cls-3" x1="27.95" y1="152.29" x2="-51.1" y2="152.29"/><line class="cls-3" x1="75.85" y1="152.29" x2="53.5" y2="152.29"/><line class="cls-4" x1="103" y1="152.29" x2="105.39" y2="152.29"/><line class="cls-3" x1="134.77" y1="152.29" x2="127.75" y2="152.29"/><line class="cls-3" x1="219.82" y1="180.45" x2="152.8" y2="180.45"/><line class="cls-3" x1="106.39" y1="124.13" y2="124.13"/><line class="cls-3" x1="156.82" y1="124.13" x2="129.35" y2="124.13"/><line class="cls-4" x1="99.64" y1="11.49" x2="134.77" y2="11.49"/><line class="cls-3" x1="74.09" y1="11.49" x2="79.94" y2="11.49"/><line class="cls-4" x1="-49.4" y1="11.49" x2="49.6" y2="11.49"/><line class="cls-3" x1="344.21" y1="39.65" x2="356.02" y2="39.65"/><line class="cls-3" x1="315.46" y1="39.65" x2="322.65" y2="39.65"/><line class="cls-3" x1="184.82" y1="39.65" x2="251.32" y2="39.65"/><line class="cls-3" x1="265.96" y1="67.81" x2="374.55" y2="67.81"/><line class="cls-4" x1="208.32" y1="67.81" x2="235.62" y2="67.81"/><line class="cls-4" x1="156.82" y1="67.81" x2="189.82" y2="67.81"/><line class="cls-4" x1="161.36" y1="95.97" x2="192.25" y2="95.97"/><line class="cls-3" x1="217.13" y1="95.97" x2="309.32" y2="95.97"/><line class="cls-3" x1="319.22" y1="208.61" x2="240.97" y2="208.61"/><line class="cls-3" x1="374.55" y1="208.61" x2="346.24" y2="208.61"/><line class="cls-3" x1="266.13" y1="180.45" x2="237.32" y2="180.45"/><line class="cls-4" x1="374.55" y1="180.45" x2="293.27" y2="180.45"/><line class="cls-3" x1="267.72" y1="152.29" x2="157.82" y2="152.29"/><line class="cls-3" x1="315.63" y1="152.29" x2="293.27" y2="152.29"/><line class="cls-4" x1="342.78" y1="152.29" x2="345.17" y2="152.29"/><line class="cls-3" x1="374.55" y1="152.29" x2="367.53" y2="152.29"/><line class="cls-3" x1="346.17" y1="124.13" x2="239.78" y2="124.13"/><line class="cls-3" x1="382.82" y1="124.13" x2="369.13" y2="124.13"/><line class="cls-4" x1="339.42" y1="11.49" x2="374.55" y2="11.49"/><line class="cls-3" x1="313.87" y1="11.49" x2="319.72" y2="11.49"/><line class="cls-4" x1="164.32" y1="11.49" x2="289.38" y2="11.49"/><line class="cls-3" x1="441.04" y1="39.65" x2="471.38" y2="39.65"/><line class="cls-3" x1="384.16" y1="39.65" x2="409.87" y2="39.65"/><line class="cls-4" x1="583.88" y1="124.13" x2="624.32" y2="124.13"/><line class="cls-3" x1="408.18" y1="67.81" x2="516.77" y2="67.81"/><line class="cls-4" x1="326.59" y1="95.97" x2="539.77" y2="95.97"/><line class="cls-4" x1="623.32" y1="208.61" x2="558.92" y2="208.61"/><line class="cls-3" x1="484.44" y1="208.61" x2="406.2" y2="208.61"/><line class="cls-3" x1="539.77" y1="208.61" x2="511.46" y2="208.61"/><line class="cls-4" x1="483.77" y1="180.45" x2="402.5" y2="180.45"/><line class="cls-3" x1="424.85" y1="152.29" x2="402.5" y2="152.29"/><line class="cls-4" x1="452" y1="152.29" x2="454.39" y2="152.29"/><line class="cls-3" x1="483.77" y1="152.29" x2="476.75" y2="152.29"/><line class="cls-3" x1="568.82" y1="180.45" x2="501.8" y2="180.45"/><line class="cls-3" x1="511.39" y1="124.13" x2="405" y2="124.13"/><line class="cls-3" x1="561.82" y1="124.13" x2="534.35" y2="124.13"/><line class="cls-4" x1="428.64" y1="11.49" x2="463.77" y2="11.49"/><line class="cls-3" x1="403.09" y1="11.49" x2="408.94" y2="11.49"/><line class="cls-3" x1="500.82" y1="39.65" x2="594.32" y2="39.65"/><line class="cls-3" x1="586.82" y1="67.81" x2="617.62" y2="67.81"/><line class="cls-4" x1="538.82" y1="67.81" x2="565.99" y2="67.81"/><line class="cls-4" x1="566.36" y1="95.97" x2="597.25" y2="95.97"/><line class="cls-3" x1="615.13" y1="180.45" x2="586.32" y2="180.45"/><line class="cls-3" x1="616.72" y1="152.29" x2="506.82" y2="152.29"/><line class="cls-4" x1="493.32" y1="11.49" x2="618.38" y2="11.49"/></g></svg>