<svg id="图层_1" data-name="图层 1" xmlns="http://www.w3.org/2000/svg" xmlns:xlink="http://www.w3.org/1999/xlink" viewBox="0 0 591.12 220.11"><defs><style>.cls-1,.cls-3{fill:none;}.cls-2{clip-path:url(#clip-path);}.cls-3{stroke:#fff;stroke-linecap:round;stroke-miterlimit:10;stroke-width:9px;opacity:0.4;}</style><clipPath id="clip-path"><rect class="cls-1" width="591.12" height="220.11" transform="translate(591.12 220.11) rotate(-180)"/></clipPath></defs><title>top</title><g class="cls-2"><line class="cls-3" x1="486.69" y1="180.45" x2="429.35" y2="180.45"/><line class="cls-3" x1="321.4" y1="180.45" x2="291.06" y2="180.45"/><line class="cls-3" x1="515.44" y1="180.45" x2="508.25" y2="180.45"/><line class="cls-3" x1="615.24" y1="180.45" x2="539.39" y2="180.45"/><line class="cls-3" x1="412.24" y1="95.97" x2="371.8" y2="95.97"/><line class="cls-3" x1="612.3" y1="152.29" x2="456.35" y2="152.29"/><line class="cls-3" x1="669.54" y1="124.13" x2="456.35" y2="124.13"/><line class="cls-3" x1="372.8" y1="11.49" x2="437.2" y2="11.49"/><line class="cls-3" x1="511.68" y1="11.49" x2="589.92" y2="11.49"/><line class="cls-3" x1="456.35" y1="11.49" x2="484.66" y2="11.49"/><line class="cls-3" x1="564.77" y1="39.65" x2="615.08" y2="39.65"/><line class="cls-3" x1="456.35" y1="39.65" x2="537.62" y2="39.65"/><line class="cls-3" x1="563.18" y1="67.81" x2="642.22" y2="67.81"/><line class="cls-3" x1="515.27" y1="67.81" x2="537.62" y2="67.81"/><line class="cls-3" x1="488.12" y1="67.81" x2="485.73" y2="67.81"/><line class="cls-3" x1="456.35" y1="67.81" x2="463.37" y2="67.81"/><line class="cls-3" x1="371.3" y1="39.65" x2="438.32" y2="39.65"/><line class="cls-3" x1="484.73" y1="95.97" x2="591.12" y2="95.97"/><line class="cls-3" x1="434.3" y1="95.97" x2="461.77" y2="95.97"/><line class="cls-3" x1="491.48" y1="208.61" x2="456.35" y2="208.61"/><line class="cls-3" x1="517.03" y1="208.61" x2="511.18" y2="208.61"/><line class="cls-3" x1="640.53" y1="208.61" x2="541.52" y2="208.61"/><line class="cls-3" x1="246.91" y1="180.45" x2="235.1" y2="180.45"/><line class="cls-3" x1="275.66" y1="180.45" x2="268.47" y2="180.45"/><line class="cls-3" x1="406.3" y1="180.45" x2="339.8" y2="180.45"/><line class="cls-3" x1="325.16" y1="152.29" x2="216.57" y2="152.29"/><line class="cls-3" x1="382.8" y1="152.29" x2="355.5" y2="152.29"/><line class="cls-3" x1="434.3" y1="152.29" x2="401.3" y2="152.29"/><line class="cls-3" x1="429.76" y1="124.13" x2="398.87" y2="124.13"/><line class="cls-3" x1="374" y1="124.13" x2="281.8" y2="124.13"/><line class="cls-3" x1="271.9" y1="11.49" x2="350.15" y2="11.49"/><line class="cls-3" x1="216.57" y1="11.49" x2="244.88" y2="11.49"/><line class="cls-3" x1="325" y1="39.65" x2="353.8" y2="39.65"/><line class="cls-3" x1="216.57" y1="39.65" x2="297.85" y2="39.65"/><line class="cls-3" x1="323.4" y1="67.81" x2="433.3" y2="67.81"/><line class="cls-3" x1="275.49" y1="67.81" x2="297.85" y2="67.81"/><line class="cls-3" x1="248.34" y1="67.81" x2="245.95" y2="67.81"/><line class="cls-3" x1="216.57" y1="67.81" x2="223.59" y2="67.81"/><line class="cls-3" x1="244.95" y1="95.97" x2="351.34" y2="95.97"/><line class="cls-3" x1="208.3" y1="95.97" x2="222" y2="95.97"/><line class="cls-3" x1="251.71" y1="208.61" x2="216.57" y2="208.61"/><line class="cls-3" x1="277.26" y1="208.61" x2="271.4" y2="208.61"/><line class="cls-3" x1="426.8" y1="208.61" x2="301.74" y2="208.61"/><line class="cls-3" x1="150.08" y1="180.45" x2="119.74" y2="180.45"/><line class="cls-3" x1="206.96" y1="180.45" x2="181.25" y2="180.45"/><line class="cls-3" x1="7.24" y1="95.97" x2="-33.2" y2="95.97"/><line class="cls-3" x1="182.94" y1="152.29" x2="74.35" y2="152.29"/><line class="cls-3" x1="264.54" y1="124.13" x2="51.35" y2="124.13"/><line class="cls-3" x1="-32.2" y1="11.49" x2="32.2" y2="11.49"/><line class="cls-3" x1="106.68" y1="11.49" x2="184.92" y2="11.49"/><line class="cls-3" x1="51.35" y1="11.49" x2="79.66" y2="11.49"/><line class="cls-3" x1="107.35" y1="39.65" x2="188.62" y2="39.65"/><line class="cls-3" x1="166.27" y1="67.81" x2="188.62" y2="67.81"/><line class="cls-3" x1="139.12" y1="67.81" x2="136.73" y2="67.81"/><line class="cls-3" x1="107.35" y1="67.81" x2="114.37" y2="67.81"/><line class="cls-3" x1="22.3" y1="39.65" x2="89.32" y2="39.65"/><line class="cls-3" x1="79.73" y1="95.97" x2="186.12" y2="95.97"/><line class="cls-3" x1="29.3" y1="95.97" x2="56.77" y2="95.97"/><line class="cls-3" x1="162.48" y1="208.61" x2="127.35" y2="208.61"/><line class="cls-3" x1="188.03" y1="208.61" x2="182.18" y2="208.61"/><line class="cls-3" x1="90.3" y1="180.45" x2="-3.2" y2="180.45"/><line class="cls-3" x1="4.3" y1="152.29" x2="-26.5" y2="152.29"/><line class="cls-3" x1="52.3" y1="152.29" x2="25.13" y2="152.29"/><line class="cls-3" x1="24.76" y1="124.13" x2="-6.13" y2="124.13"/><line class="cls-3" x1="-24" y1="39.65" x2="4.8" y2="39.65"/><line class="cls-3" x1="-25.6" y1="67.81" x2="84.3" y2="67.81"/><line class="cls-3" x1="97.8" y1="208.61" x2="-27.26" y2="208.61"/></g></svg>