<svg id="图层_1" data-name="图层 1" xmlns="http://www.w3.org/2000/svg" viewBox="0 0 258.87 373.97"><defs><style>.cls-1{fill:#fff;}</style></defs><title>top</title><path class="cls-1" d="M130.11,7.79h0m-0.68.58a318.47,318.47,0,0,0,45.35,31.89c26.77,15.45,52.35,24.52,76.05,27a1,1,0,0,1,0,.22v139c0.18,9.23-2.61,33.64-14.48,60a178.66,178.66,0,0,1-36,52.16c-18.95,19.19-42.83,35.11-71,47.3-28.16-12.19-52-28.11-71-47.3a178.66,178.66,0,0,1-36-52.16C10.62,240.08,7.82,215.67,8,206.46v-139a1,1,0,0,1,0-.22c23.7-2.44,49.29-11.51,76.05-27A318.46,318.46,0,0,0,129.43,8.36M8.1,67h0M129.43,0a6.94,6.94,0,0,0-4.52,1.7C109.93,14.49,59.75,54,6.74,59.3,2.92,59.68,0,63.21,0,67.44V206.27S-2.65,317.68,126.77,373.42a6.7,6.7,0,0,0,5.33,0c129.42-55.74,126.77-167.15,126.77-167.15V67.44c0-4.23-2.92-7.75-6.73-8.13C199.12,54,148.94,14.49,134,1.7A6.94,6.94,0,0,0,129.43,0h0Z"/></svg>