<svg id="图层_1" data-name="图层 1" xmlns="http://www.w3.org/2000/svg" xmlns:xlink="http://www.w3.org/1999/xlink" viewBox="0 0 258.87 373.97"><defs><style>.cls-1,.cls-6,.cls-7{fill:none;}.cls-2{fill:#fff;}.cls-3,.cls-6,.cls-7{opacity:0.4;}.cls-4{opacity:0.1;}.cls-5{clip-path:url(#clip-path);}.cls-6{stroke:#fff;}.cls-6,.cls-7{stroke-linecap:round;stroke-miterlimit:10;stroke-width:9px;}.cls-7{stroke:#ff1744;}.cls-8{clip-path:url(#clip-path-2);}</style><clipPath id="clip-path"><rect class="cls-1" x="387.13" y="81.44" width="591.12" height="220.11"/></clipPath><clipPath id="clip-path-2"><rect class="cls-1" x="-709.83" y="81.44" width="591.12" height="220.11" transform="translate(-828.55 382.99) rotate(-180)"/></clipPath></defs><title>top</title><path class="cls-2" d="M130.11,7.79h0m-0.68.58a318.47,318.47,0,0,0,45.35,31.89c26.77,15.45,52.35,24.52,76.05,27a1,1,0,0,1,0,.22v139c0.18,9.23-2.61,33.64-14.48,60a178.66,178.66,0,0,1-36,52.16c-18.95,19.19-42.83,35.11-71,47.3-28.16-12.19-52-28.11-71-47.3a178.66,178.66,0,0,1-36-52.16C10.62,240.08,7.82,215.67,8,206.46v-139a1,1,0,0,1,0-.22c23.7-2.44,49.29-11.51,76.05-27A318.46,318.46,0,0,0,129.43,8.36M8.1,67h0M129.43,0a6.94,6.94,0,0,0-4.52,1.7C109.93,14.49,59.75,54,6.74,59.3,2.92,59.68,0,63.21,0,67.44V206.27S-2.65,317.68,126.77,373.42a6.7,6.7,0,0,0,5.33,0c129.42-55.74,126.77-167.15,126.77-167.15V67.44c0-4.23-2.92-7.75-6.73-8.13C199.12,54,148.94,14.49,134,1.7A6.94,6.94,0,0,0,129.43,0h0Z"/><g class="cls-3"><path d="M154.29,139.87c0-2.71-1-3.17-2.58-3.17h-0.88V143h0.86C153.39,143,154.29,142.65,154.29,139.87Z"/><path d="M183.55,157.21a6,6,0,0,0,6-6V128.82a6,6,0,0,0-6-6H75.32a6,6,0,0,0-6,6v22.36a6,6,0,0,0,6,6h2.56v8.5H75.32a6,6,0,0,0-6,6v22.36a6,6,0,0,0,6,6h2.56v8.5H75.32a6,6,0,0,0-6,6V237a6,6,0,0,0,6,6H183.55a6,6,0,0,0,6-6V214.69a6,6,0,0,0-6-6H181v-8.5h2.56a6,6,0,0,0,6-6V171.75a6,6,0,0,0-6-6H181v-8.5h2.56ZM159.73,134.1H163l4.29,6.34h0V134.1h3.33v11.47h-3.35l-4.26-6.29h0v6.29h-3.33V134.1Zm-12.44,0h5.25a6.4,6.4,0,0,1,2.95.64c2,1.14,2.34,3.59,2.34,5.06,0,1.65-.24,3.8-2.23,5.06a7.43,7.43,0,0,1-3.06.7h-5.25V134.1ZM95.06,182.9v8.59H88.92V182.9h6.14Zm0-42.93v8.59H88.92V140h6.14Zm-17.19,0H84v8.59H77.88V140Zm0,42.93H84v8.59H77.88V182.9Zm0,42.93H84v8.59H77.88v-8.59Zm17.19,8.59H88.92v-8.59h6.14v8.59Zm77.34-25.78H86.47v-8.5H172.4v8.5Zm0-42.93H86.47v-8.5H172.4v8.5Zm5.39-20c-2.87,0-3.81-.78-4.31-1.39a4.52,4.52,0,0,1-1-2.59l3.38-.21a1.9,1.9,0,0,0,2,2,1.35,1.35,0,0,0,1.59-1.19c0-.86-0.88-1.17-2.21-1.47s-4.32-1-4.32-3.6a3,3,0,0,1,1.14-2.34c0.59-.48,1.51-1,3.73-1,1.75,0,4.32.26,4.72,3.41l-3.33.21A1.57,1.57,0,0,0,177.4,136a1,1,0,0,0-1.23.9c0,0.48.45,0.7,1.44,0.93,2.85,0.61,5.25,1.31,5.25,4C182.87,143,182.18,145.76,177.79,145.76Z"/></g><path class="cls-4" d="M189.23,239.07a6,6,0,0,1-5.68,4H75.32a6,6,0,0,1-5.68-4c-7.88,1.7-12.49,3.75-12.49,6,0,5.85,32.36,10.59,72.28,10.59s72.28-4.74,72.28-10.59C201.72,242.82,197.11,240.77,189.23,239.07Z"/><g class="cls-5"><line class="cls-6" x1="238.45" y1="121.09" x2="283.96" y2="121.09"/><line class="cls-6" x1="180.96" y1="149.26" x2="305.52" y2="149.26"/><line class="cls-6" x1="335.23" y1="261.9" x2="263.37" y2="261.9"/><line class="cls-7" x1="307.28" y1="233.74" x2="205.08" y2="233.74"/><line class="cls-6" x1="335.23" y1="205.58" x2="243.24" y2="205.58"/></g><g class="cls-8"><line class="cls-6" x1="29.97" y1="261.9" x2="-15.55" y2="261.9"/><line class="cls-6" x1="87.45" y1="233.74" x2="-37.1" y2="233.74"/><line class="cls-6" x1="-66.81" y1="121.09" x2="5.05" y2="121.09"/><line class="cls-6" x1="-38.87" y1="149.26" x2="63.34" y2="149.26"/><line class="cls-6" x1="-66.81" y1="177.42" x2="25.17" y2="177.42"/></g></svg>